<svg id="Layer_1" data-name="Layer 1" xmlns="http://www.w3.org/2000/svg" xmlns:xlink="http://www.w3.org/1999/xlink" viewBox="0 0 3000 3000"><defs><style>.cls-1,.cls-2{fill-rule:evenodd;}.cls-1{fill:url(#linear-gradient);}.cls-2{fill:#fefefe;}</style><linearGradient id="linear-gradient" x1="2000" y1="692.51" x2="2000" y2="3234.97" gradientUnits="userSpaceOnUse"><stop offset="0" stop-color="#4e6abd"/><stop offset="1" stop-color="#3e51a0"/></linearGradient></defs><path class="cls-1" d="M1160.48,500H2839.55C3202.26,500,3500,797.61,3500,1160.14V2838.36c0,364-297.74,661.64-660.45,661.64H1160.48C796.25,3500,500,3202.41,500,2838.36V1160.14C500,797.61,796.25,500,1160.48,500Z" transform="translate(-500 -500)"/><path class="cls-2" d="M2144.34,1660.13v-145c0-69.47,46.83-86.1,80.12-86.1H2427V1119.35H2147.38C1837.54,1119.35,1768,1349,1768,1497v163.14H1588.18v361h181.36V2923h361.19v-901.8h267.52l12.08-142,21.15-219Z" transform="translate(-500 -500)"/></svg>