<svg id="Layer_1" data-name="Layer 1" xmlns="http://www.w3.org/2000/svg" xmlns:xlink="http://www.w3.org/1999/xlink" viewBox="0 0 1283.72 1283.73"><defs><style>.cls-1{fill:url(#linear-gradient);}.cls-2{fill:url(#linear-gradient-2);}.cls-3{fill:url(#linear-gradient-3);}.cls-4{fill:#1e1e1e;}</style><linearGradient id="linear-gradient" x1="1576.4" y1="748.96" x2="588.48" y2="1736.87" gradientUnits="userSpaceOnUse"><stop offset="0" stop-color="#4845a0"/><stop offset="0.19" stop-color="#85449f"/><stop offset="0.3" stop-color="#a6449f"/><stop offset="0.35" stop-color="#a94298"/><stop offset="0.42" stop-color="#b23c86"/><stop offset="0.51" stop-color="#c13267"/><stop offset="0.6" stop-color="#d5243e"/><stop offset="0.88" stop-color="#f7a127"/><stop offset="1" stop-color="#f7db26"/></linearGradient><linearGradient id="linear-gradient-2" x1="1577.99" y1="750.55" x2="590.08" y2="1738.47" xlink:href="#linear-gradient"/><linearGradient id="linear-gradient-3" x1="1577.21" y1="749.77" x2="589.3" y2="1737.69" xlink:href="#linear-gradient"/></defs><path class="cls-1" d="M1347.74,607.08H805.07c-204.63,0-370.52,165.89-370.52,370.53v542.67c0,204.65,165.89,370.53,370.52,370.53h542.67c204.64,0,370.53-165.88,370.53-370.53V977.61c0-204.64-165.89-370.53-370.53-370.53m252.31,922.74c0,135.84-110.12,246-246,246H798.73c-135.83,0-246-110.11-246-246V974.46c0-135.86,110.13-246,246-246h555.35c135.85,0,246,110.09,246,246Z" transform="translate(-434.55 -607.08)"/><path class="cls-2" d="M1076.41,919.06c-184,0-333.09,149.11-333.09,333.08s149.13,333.09,333.09,333.09,333.09-149.13,333.09-333.09-149.14-333.08-333.09-333.08m0,549c-119.25,0-215.92-96.67-215.92-215.92s96.67-215.9,215.92-215.9,215.91,96.64,215.91,215.9-96.66,215.92-215.91,215.92" transform="translate(-434.55 -607.08)"/><path class="cls-3" d="M1420.6,828.79a77.59,77.59,0,1,0,77.6,77.59,77.6,77.6,0,0,0-77.6-77.59" transform="translate(-434.55 -607.08)"/><path class="cls-4" d="M-269.69,830.9" transform="translate(-434.55 -607.08)"/></svg>