<svg xmlns="http://www.w3.org/2000/svg" viewBox="0 0 1402 1402"><defs><style>.cls-1{fill:#fd0000;}.cls-2{fill:#fff;}</style></defs><g id="Layer_1" data-name="Layer 1"><circle class="cls-1" cx="701" cy="701" r="701"/><path class="cls-2" d="M1447.8,775a117.07,117.07,0,0,0-82.63-82.63C1292.28,672.87,1000,672.87,1000,672.87s-292.28,0-365.17,19.53A117.07,117.07,0,0,0,552.2,775c-19.53,72.89-19.53,225-19.53,225s0,152.08,19.53,225a117.07,117.07,0,0,0,82.63,82.63c72.89,19.53,365.17,19.53,365.17,19.53s292.28,0,365.17-19.53A117.07,117.07,0,0,0,1447.8,1225c19.53-72.89,19.53-225,19.53-225S1467.33,847.92,1447.8,775ZM906.53,1140.2V859.8L1149.36,1000Z" transform="translate(-299 -299)"/></g></svg>